<svg width="309" height="80" viewBox="0 0 309 80" fill="none" xmlns="http://www.w3.org/2000/svg">
<path d="M28.096 11.9437C12.6039 11.9437 0 24.6474 0 40.2613C0 55.8752 12.6031 68.5773 28.096 68.5781C43.5882 68.5781 56.1929 55.8752 56.1929 40.2621C56.1929 24.6466 43.5882 11.9437 28.096 11.9437ZM28.096 57.1182C18.8728 57.1182 11.3689 49.557 11.3689 40.2613C11.3689 30.9656 18.8728 23.4028 28.096 23.4028C37.3193 23.4028 44.8224 30.9656 44.8224 40.2613C44.8224 49.557 37.3193 57.1182 28.096 57.1182Z" fill="#1D4AF6"/>
<path d="M102.964 0C84.2053 0 68.9416 15.382 68.9416 34.2887C68.9416 53.1963 84.2045 68.5791 102.964 68.5791C121.724 68.5791 136.988 53.1971 136.988 34.2896C136.988 15.3828 121.724 0 102.964 0ZM102.964 57.1193C90.4742 57.1193 80.3121 46.8773 80.3121 34.2879C80.3121 21.7002 90.4742 11.459 102.964 11.459C115.454 11.459 125.616 21.701 125.616 34.2887C125.617 46.8773 115.455 57.1193 102.964 57.1193Z" fill="#1D4AF6"/>
<path d="M228.913 17.5282C225.772 17.5282 223.227 20.0938 223.227 23.2577V62.8503C223.227 66.0143 225.772 68.579 228.913 68.579C232.052 68.579 234.597 66.0134 234.597 62.8503V23.2577C234.597 20.0938 232.052 17.5282 228.913 17.5282Z" fill="#1D4AF6"/>
<path d="M177.918 23.1032C177.918 19.9392 175.371 17.3737 172.233 17.3737H170.315C167.511 17.3737 164.857 18.0296 162.493 19.1932C156.544 22.1229 152.436 28.2837 152.436 35.3942V62.8498C152.436 66.0138 154.981 68.5785 158.12 68.5785C161.26 68.5785 163.805 66.0138 163.805 62.8498V35.3942C163.805 31.7761 166.726 28.8319 170.315 28.8319H172.233C175.372 28.8327 177.918 26.268 177.918 23.1032Z" fill="#1D4AF6"/>
<path d="M280.612 57.1198H271.225C267.636 57.1198 264.714 54.1764 264.714 50.5584V35.3937C264.714 31.7757 267.636 28.8314 271.225 28.8314H273.142C276.281 28.8314 278.827 26.2667 278.827 23.1027C278.827 19.9388 276.281 17.3732 273.142 17.3732H271.225C268.928 17.3732 266.734 17.8167 264.714 18.6154V11.3883C264.714 8.22429 262.169 5.65955 259.03 5.65955C255.89 5.65955 253.345 8.22429 253.345 11.3883V50.5592C253.345 57.6704 257.454 63.8305 263.403 66.7601C265.767 67.9245 268.42 68.5797 271.226 68.5797H280.613C283.752 68.5797 286.298 66.0141 286.298 62.8502C286.298 59.6846 283.752 57.1198 280.612 57.1198Z" fill="#1D4AF6"/>
<path d="M198.793 17.08C195.654 17.08 193.109 19.6447 193.109 22.8087V61.9796C193.109 65.5976 190.188 68.541 186.599 68.541H177.211C174.072 68.541 171.526 71.1058 171.526 74.2706C171.526 77.4345 174.072 80.0001 177.211 80.0001H186.599C189.403 80.0001 192.057 79.3449 194.421 78.1805C200.371 75.2509 204.479 69.09 204.479 61.9796V22.8087C204.479 19.6447 201.933 17.08 198.793 17.08Z" fill="#1D4AF6"/>
<path d="M291.603 13.1571V4.38086H288.234V2.74707H296.714V4.38086H293.345V13.1571H291.603Z" fill="#1D4AF6"/>
<path d="M297.87 13.1571V2.74707H299.439L303.039 10.1208L306.639 2.74707H308.208V13.1571H306.581V6.48455L303.386 13.1571H302.692L299.504 6.48455V13.1571H297.87Z" fill="#1D4AF6"/>
</svg>
